# xmcd
#
# Track frame offsets:
#	150
#	21189
#	42246
#	60742
#	75585
#	83206
#	102218
#	119021
#	137311
#	159736
#	185090
#	197041
#	217366
#	236333
#	258956
#	272341
#	290586
#	304090
#	319992
#	336115
#
# Disc length: 4770 seconds
#
# Revision: 0
# Processed by: cddbd v1.5.2PL0 Copyright (c) Steve Scherf et al.
# Submitted via: EasyCDDAExtractor 8.2.3.1
#
DISCID=2512a014
DTITLE=Various Artist - Country and Western vol.7 CD-1
DYEAR=2006
DGENRE=Country
TTITLE0=LYNYRD SKYNYRD - All I Can Do Is Write About It
TTITLE1=BIG HOUSE - Walkin' On Me
TTITLE2=HANK SHIZZOE - Zoo
TTITLE3=MICK MARTIN and Blues Rockers - Mustang Sally
TTITLE4=J.J.CALE - Drifters Wife
TTITLE5=JOHN FOGERTY - Deja Vu (All Over Again)
TTITLE6=LITTLE FEAT - New Delhi Freight Train
TTITLE7=The UNDERDOGS - Preachin' to the Choir
TTITLE8=DIRE STRAITS - When It Comes To You
TTITLE9=TONY JOE WHITE - Chaos Boogie
TTITLE10=J.J.CALE - A Thing Going On
TTITLE11=HANK SHIZZOE - Same Time Same Place
TTITLE12=BIG HOUSE - Travelin' Kind
TTITLE13=LITTLE FEAT - Those Feat'll Steer Ya Wrong Sometimes
TTITLE14=LYNYRD SKYNYRD - Skynyrd Family
TTITLE15=JOHN FOGERTY - Nobody's Here Anymore
TTITLE16=MARK KNOPFLER and EMMYLOU HARRIS - Red Staggerwing
TTITLE17=GEORGE THOROGOOD - It's A Sin
TTITLE18=LYNYRD SKYNYRD - Devil In the Bottle
TTITLE19=HANK SHIZZOE - Joe Went To The Water
EXTD=
EXTT0=
EXTT1=
EXTT2=
EXTT3=
EXTT4=
EXTT5=
EXTT6=
EXTT7=
EXTT8=
EXTT9=
EXTT10=
EXTT11=
EXTT12=
EXTT13=
EXTT14=
EXTT15=
EXTT16=
EXTT17=
EXTT18=
EXTT19=
PLAYORDER=
